<svg width="1921" height="845" viewBox="0 0 1921 845" fill="none" xmlns="http://www.w3.org/2000/svg">
<path d="M156.308 843.361L0 799.85V0H280.388C355.051 0 425.953 30.6188 478.593 85.4104C531.233 140.202 560.776 214.332 560.776 292.222C560.776 370.112 531.233 444.242 478.593 499.033C425.953 553.825 354.513 584.443 280.388 584.443H195.52L237.417 421.68H280.925C297.576 421.68 313.691 418.994 329.268 412.548C344.845 406.102 358.81 396.97 370.628 384.615C382.445 372.798 391.576 358.294 398.022 342.179C404.468 326.064 407.69 309.411 407.69 292.222C407.69 275.032 404.468 257.843 398.022 242.265C391.576 226.15 382.445 212.183 370.628 199.828C358.81 188.01 344.845 178.341 329.268 171.895C313.691 165.449 297.576 162.226 280.925 162.763H156.845V843.361H156.308Z" fill="#307FE2"/>
<path d="M676.26 843.36V203.588L834.716 247.099V680.597H958.796C992.636 680.597 1024.86 666.631 1048.5 642.458C1072.13 617.748 1085.56 584.443 1085.56 550.064V294.37C1085.56 259.454 1072.13 226.15 1048.5 201.977C1024.86 177.267 992.099 163.838 958.796 163.838H676.26L718.694 1.07433H958.796C1034.53 1.07433 1107.05 32.2303 1160.76 87.5591C1214.48 142.888 1244.56 217.555 1244.56 295.445V551.139C1244.56 629.029 1214.48 703.696 1160.76 759.025C1107.05 814.353 1034.53 844.972 958.796 844.972L676.26 843.36Z" fill="#307FE2"/>
<path d="M1878.38 162.763L1920.28 0H1358.97V799.85L1515.27 843.361V529.115H1783.85L1825.74 366.352H1515.27V162.763H1878.38Z" fill="#307FE2"/>
</svg>
